<svg width="94" height="71" viewBox="0 0 94 71" fill="none" xmlns="http://www.w3.org/2000/svg">
<path d="M35.2819 27.013H41.2698L41.7395 28.3632V41.4545L41.2698 42.8634H35.2819V51.0234C35.2819 51.317 34.9884 63.058 25.889 62.9993H9.45156C0.352232 63.058 0 51.317 0 51.0234L0.117411 30.5353H1.23281L1.29152 39.4585C1.29152 42.2176 4.63772 47.1489 9.45156 47.1489H25.889C28.9417 47.1489 31.4073 45.1529 32.8163 42.9808H16.2027V24.3125C16.5549 20.9076 18.3161 13.3346 25.5368 13.3346C33.7556 13.3346 35.2819 24.3125 35.2819 24.3125V27.013ZM34.1665 24.3125H17.6116C16.8484 24.606 16.9071 26.3672 17.6116 26.7194H34.1665V24.3125Z" fill="#6366FF"/>
<path d="M50.7173 30.8875C50.7173 31.181 50.365 42.9221 41.2657 42.8634L40.6199 41.2784V28.9502L41.2657 27.013C46.0795 27.013 49.4257 22.0817 49.4257 19.3226L49.4845 13.5107H50.5999L50.7173 30.8875Z" fill="#6366FF"/>
<path d="M83.7647 27.013L84.6453 29.3612V41.1609L83.7647 42.8634C79.0683 42.9221 75.8395 39.752 74.7241 36.6406V42.8634C74.7241 48.4991 72.552 54.3109 66.2118 58.5377L48.7176 70.2788V53.8413L65.2725 47.0902C70.4386 44.9768 73.1977 40.5739 73.6674 36.4645V19.7922H74.7241C74.9589 22.5514 79.127 27.013 83.7647 27.013Z" fill="#6366FF"/>
<path d="M93.1984 30.8875C93.1984 31.181 92.8461 42.9221 83.7468 42.8634L83.101 41.2784V28.9502L83.7468 27.013C88.5606 27.013 91.9068 22.0817 91.9068 19.3226L91.9655 13.5107H93.0809L93.1984 30.8875Z" fill="#6366FF"/>
<path d="M48.2048 49.3153C49.3069 48.1738 50.4585 45.9348 50.4585 45.9348C50.4585 45.9348 51.3974 48.1888 52.4304 49.3153C53.6679 50.6648 56.3743 51.8506 56.3743 51.8506C56.3743 51.8506 53.648 52.605 52.4304 53.8226C51.2128 55.0402 50.4585 57.7665 50.4585 57.7665C50.4585 57.7665 49.4904 55.0449 48.2048 53.8226C47.0276 52.7033 44.5426 51.8506 44.5426 51.8506C44.5426 51.8506 46.9966 50.5666 48.2048 49.3153Z" fill="#343586"/>
<path d="M36.3734 49.3153C37.4754 48.1738 38.627 45.9348 38.627 45.9348C38.627 45.9348 39.566 48.1888 40.599 49.3153C41.8365 50.6648 44.5429 51.8506 44.5429 51.8506C44.5429 51.8506 41.8166 52.605 40.599 53.8226C39.3814 55.0402 38.627 57.7665 38.627 57.7665C38.627 57.7665 37.6589 55.0449 36.3734 53.8226C35.1962 52.7033 32.7112 51.8506 32.7112 51.8506C32.7112 51.8506 35.1651 50.5666 36.3734 49.3153Z" fill="#343586"/>
<path d="M85.0919 50.0113C86.194 48.8699 87.3455 46.6309 87.3455 46.6309C87.3455 46.6309 88.2845 48.8849 89.3175 50.0113C90.555 51.3608 93.2614 52.5467 93.2614 52.5467C93.2614 52.5467 90.5351 53.301 89.3175 54.5187C88.0999 55.7363 87.3455 58.4626 87.3455 58.4626C87.3455 58.4626 86.3774 55.741 85.0919 54.5187C83.9147 53.3994 81.4297 52.5467 81.4297 52.5467C81.4297 52.5467 83.8837 51.2627 85.0919 50.0113Z" fill="#343586"/>
<path d="M28.7176 3.38049C29.8197 2.23906 30.9713 0 30.9713 0C30.9713 0 31.9103 2.25405 32.9432 3.38049C34.1807 4.72998 36.8871 5.91585 36.8871 5.91585C36.8871 5.91585 34.1608 6.67017 32.9432 7.8878C31.7256 9.10543 30.9713 11.8317 30.9713 11.8317C30.9713 11.8317 30.0032 9.11014 28.7176 7.8878C27.5405 6.76854 25.0554 5.91585 25.0554 5.91585C25.0554 5.91585 27.5094 4.63186 28.7176 3.38049Z" fill="#343586"/>
<path d="M16.8858 3.38049C17.9879 2.23906 19.1395 0 19.1395 0C19.1395 0 20.0785 2.25405 21.1114 3.38049C22.3489 4.72998 25.0553 5.91585 25.0553 5.91585C25.0553 5.91585 22.3291 6.67017 21.1114 7.8878C19.8938 9.10543 19.1395 11.8317 19.1395 11.8317C19.1395 11.8317 18.1714 9.11014 16.8858 7.8878C15.7087 6.76854 13.2236 5.91585 13.2236 5.91585C13.2236 5.91585 15.6776 4.63186 16.8858 3.38049Z" fill="#343586"/>
<path d="M86.0422 10.2018V8.02081L93.9999 4.66089V6.84189L86.0422 10.2018Z" fill="#343586"/>
</svg>
