<svg width="1347" height="1183" viewBox="0 0 1347 1183" fill="none" xmlns="http://www.w3.org/2000/svg">
<path d="M624.075 597.913V583.783L572.519 562.015V576.145L624.075 597.913Z" fill="#EBECF9" fill-opacity="0.7"/>
<path d="M612.891 661.547C605.751 654.152 598.29 639.646 598.29 639.646C598.29 639.646 592.206 654.249 585.514 661.547C577.496 670.291 559.962 677.974 559.962 677.974C559.962 677.974 577.625 682.861 585.514 690.75C593.403 698.638 598.29 716.301 598.29 716.301C598.29 716.301 604.562 698.669 612.891 690.75C620.518 683.498 636.618 677.974 636.618 677.974C636.618 677.974 620.719 669.655 612.891 661.547Z" fill="#EBECF9" fill-opacity="0.7"/>
<path d="M623.052 785.609V771.479L571.495 749.711V763.841L623.052 785.609Z" fill="#EBECF9" fill-opacity="0.7"/>
<path d="M611.868 849.244C604.727 841.849 597.266 827.342 597.266 827.342C597.266 827.342 591.183 841.946 584.491 849.244C576.473 857.987 558.939 865.67 558.939 865.67C558.939 865.67 576.602 870.557 584.491 878.446C592.379 886.335 597.266 903.998 597.266 903.998C597.266 903.998 603.539 886.365 611.868 878.446C619.494 871.195 635.594 865.67 635.594 865.67C635.594 865.67 619.695 857.351 611.868 849.244Z" fill="#EBECF9" fill-opacity="0.7"/>
<path d="M613.914 473.853C606.774 466.458 599.313 451.951 599.313 451.951C599.313 451.951 593.23 466.555 586.537 473.853C578.52 482.596 560.986 490.279 560.986 490.279C560.986 490.279 578.649 495.166 586.537 503.055C594.426 510.944 599.313 528.607 599.313 528.607C599.313 528.607 605.585 510.974 613.914 503.055C621.541 495.804 637.641 490.279 637.641 490.279C637.641 490.279 621.742 481.96 613.914 473.853Z" fill="#EBECF9" fill-opacity="0.7"/>
<path d="M626.094 227.638V213.507L574.538 191.739V205.869L626.094 227.638Z" fill="#EBECF9" fill-opacity="0.7"/>
<path d="M615.934 103.577C608.794 96.1819 601.333 81.6754 601.333 81.6754C601.333 81.6754 595.249 96.279 588.557 103.577C580.539 112.32 563.005 120.003 563.005 120.003C563.005 120.003 580.668 124.89 588.557 132.779C596.446 140.668 601.333 158.331 601.333 158.331C601.333 158.331 607.605 140.698 615.934 132.779C623.561 125.528 639.661 120.003 639.661 120.003C639.661 120.003 623.762 111.684 615.934 103.577Z" fill="#EBECF9" fill-opacity="0.7"/>
<path d="M64.1133 412.962V398.832L12.5567 377.063V391.194L64.1133 412.962Z" fill="#EBECF9" fill-opacity="0.7"/>
<path d="M52.9285 476.596C45.7884 469.201 38.3274 454.694 38.3274 454.694C38.3274 454.694 32.2439 469.298 25.5515 476.596C17.534 485.339 -0.000328064 493.022 -0.000328064 493.022C-0.000328064 493.022 17.6627 497.909 25.5515 505.798C33.4403 513.687 38.3274 531.35 38.3274 531.35C38.3274 531.35 44.5996 513.717 52.9285 505.798C60.5551 498.546 76.6553 493.022 76.6553 493.022C76.6553 493.022 60.7564 484.703 52.9285 476.596Z" fill="#EBECF9" fill-opacity="0.7"/>
<path d="M53.953 288.902C46.8128 281.506 39.3518 267 39.3518 267C39.3518 267 33.2683 281.604 26.576 288.902C18.5584 297.645 1.02409 305.328 1.02409 305.328C1.02409 305.328 18.6872 310.215 26.576 318.104C34.4647 325.993 39.3518 343.656 39.3518 343.656C39.3518 343.656 45.624 326.023 53.953 318.104C61.5796 310.852 77.6797 305.328 77.6797 305.328C77.6797 305.328 61.7808 297.009 53.953 288.902Z" fill="#EBECF9" fill-opacity="0.7"/>
<path d="M746.588 876.352V862.222L695.032 840.454V854.584L746.588 876.352Z" fill="#EBECF9" fill-opacity="0.7"/>
<path d="M735.404 939.986C728.264 932.591 720.803 918.085 720.803 918.085C720.803 918.085 714.719 932.688 708.027 939.986C700.01 948.729 682.475 956.412 682.475 956.412C682.475 956.412 700.138 961.299 708.027 969.188C715.916 977.077 720.803 994.74 720.803 994.74C720.803 994.74 727.075 977.108 735.404 969.188C743.031 961.937 759.131 956.412 759.131 956.412C759.131 956.412 743.232 948.094 735.404 939.986Z" fill="#EBECF9" fill-opacity="0.7"/>
<path d="M745.564 1064.05V1049.92L694.008 1028.15V1042.28L745.564 1064.05Z" fill="#EBECF9" fill-opacity="0.7"/>
<path d="M734.381 1127.68C727.241 1120.29 719.78 1105.78 719.78 1105.78C719.78 1105.78 713.696 1120.38 707.004 1127.68C698.986 1136.43 681.452 1144.11 681.452 1144.11C681.452 1144.11 699.115 1149 707.004 1156.88C714.892 1164.77 719.78 1182.44 719.78 1182.44C719.78 1182.44 726.052 1164.8 734.381 1156.88C742.007 1149.63 758.107 1144.11 758.107 1144.11C758.107 1144.11 742.209 1135.79 734.381 1127.68Z" fill="#EBECF9" fill-opacity="0.7"/>
<path d="M212.953 837.902C205.813 830.506 198.352 816 198.352 816C198.352 816 192.268 830.604 185.576 837.902C177.558 846.645 160.024 854.328 160.024 854.328C160.024 854.328 177.687 859.215 185.576 867.104C193.465 874.993 198.352 892.656 198.352 892.656C198.352 892.656 204.624 875.023 212.953 867.104C220.58 859.852 236.68 854.328 236.68 854.328C236.68 854.328 220.781 846.009 212.953 837.902Z" fill="#EBECF9" fill-opacity="0.7"/>
<path d="M223.113 961.964V947.833L171.557 926.065V940.195L223.113 961.964Z" fill="#EBECF9" fill-opacity="0.7"/>
<path d="M211.93 1025.6C204.789 1018.2 197.328 1003.7 197.328 1003.7C197.328 1003.7 191.245 1018.3 184.553 1025.6C176.535 1034.34 159.001 1042.02 159.001 1042.02C159.001 1042.02 176.664 1046.91 184.553 1054.8C192.441 1062.69 197.328 1080.35 197.328 1080.35C197.328 1080.35 203.601 1062.72 211.93 1054.8C219.556 1047.55 235.656 1042.02 235.656 1042.02C235.656 1042.02 219.757 1033.71 211.93 1025.6Z" fill="#EBECF9" fill-opacity="0.7"/>
<path d="M736.428 752.292C729.287 744.897 721.826 730.39 721.826 730.39C721.826 730.39 715.743 744.994 709.051 752.292C701.033 761.035 683.499 768.718 683.499 768.718C683.499 768.718 701.162 773.605 709.051 781.494C716.939 789.383 721.826 807.046 721.826 807.046C721.826 807.046 728.099 789.413 736.428 781.494C744.054 774.243 760.154 768.718 760.154 768.718C760.154 768.718 744.255 760.399 736.428 752.292Z" fill="#EBECF9" fill-opacity="0.7"/>
<path d="M748.607 506.076V491.946L697.051 470.178V484.308L748.607 506.076Z" fill="#EBECF9" fill-opacity="0.7"/>
<path d="M737.423 569.71C730.283 562.315 722.822 547.808 722.822 547.808C722.822 547.808 716.739 562.412 710.046 569.71C702.029 578.453 684.494 586.136 684.494 586.136C684.494 586.136 702.157 591.023 710.046 598.912C717.935 606.801 722.822 624.464 722.822 624.464C722.822 624.464 729.094 606.832 737.423 598.912C745.05 591.661 761.15 586.136 761.15 586.136C761.15 586.136 745.251 577.818 737.423 569.71Z" fill="#EBECF9" fill-opacity="0.7"/>
<path d="M747.584 693.772V679.642L696.027 657.874V672.004L747.584 693.772Z" fill="#EBECF9" fill-opacity="0.7"/>
<path d="M738.447 382.016C731.307 374.621 723.846 360.114 723.846 360.114C723.846 360.114 717.762 374.718 711.07 382.016C703.053 390.759 685.518 398.442 685.518 398.442C685.518 398.442 703.181 403.329 711.07 411.218C718.959 419.107 723.846 436.77 723.846 436.77C723.846 436.77 730.118 419.137 738.447 411.218C746.074 403.966 762.174 398.442 762.174 398.442C762.174 398.442 746.275 390.123 738.447 382.016Z" fill="#EBECF9" fill-opacity="0.7"/>
<path d="M882.928 770.759V756.629L831.371 734.861V748.991L882.928 770.759Z" fill="#EBECF9" fill-opacity="0.7"/>
<path d="M871.743 834.394C864.603 826.999 857.142 812.492 857.142 812.492C857.142 812.492 851.059 827.096 844.366 834.394C836.349 843.137 818.815 850.82 818.815 850.82C818.815 850.82 836.478 855.707 844.366 863.596C852.255 871.485 857.142 889.148 857.142 889.148C857.142 889.148 863.415 871.515 871.743 863.596C879.37 856.345 895.47 850.82 895.47 850.82C895.47 850.82 879.571 842.501 871.743 834.394Z" fill="#EBECF9" fill-opacity="0.7"/>
<path d="M873.791 459.003C866.651 451.608 859.19 437.101 859.19 437.101C859.19 437.101 853.106 451.705 846.414 459.003C838.396 467.746 820.862 475.429 820.862 475.429C820.862 475.429 838.525 480.316 846.414 488.205C854.303 496.094 859.19 513.757 859.19 513.757C859.19 513.757 865.462 496.124 873.791 488.205C881.417 480.954 897.518 475.429 897.518 475.429C897.518 475.429 881.619 467.11 873.791 459.003Z" fill="#EBECF9" fill-opacity="0.7"/>
<path d="M885.971 212.787V198.657L834.414 176.889V191.019L885.971 212.787Z" fill="#EBECF9" fill-opacity="0.7"/>
<path d="M874.786 276.421C867.646 269.026 860.185 254.519 860.185 254.519C860.185 254.519 854.102 269.123 847.409 276.421C839.392 285.164 821.858 292.847 821.858 292.847C821.858 292.847 839.521 297.734 847.409 305.623C855.298 313.512 860.185 331.175 860.185 331.175C860.185 331.175 866.458 313.543 874.786 305.623C882.413 298.372 898.513 292.847 898.513 292.847C898.513 292.847 882.614 284.529 874.786 276.421Z" fill="#EBECF9" fill-opacity="0.7"/>
<path d="M884.947 400.483V386.353L833.39 364.585V378.715L884.947 400.483Z" fill="#EBECF9" fill-opacity="0.7"/>
<path d="M875.81 88.7269C868.67 81.3318 861.209 66.8253 861.209 66.8253C861.209 66.8253 855.125 81.4289 848.433 88.7269C840.415 97.47 822.881 105.153 822.881 105.153C822.881 105.153 840.544 110.04 848.433 117.929C856.322 125.818 861.209 143.481 861.209 143.481C861.209 143.481 867.481 125.848 875.81 117.929C883.436 110.678 899.537 105.153 899.537 105.153C899.537 105.153 883.638 96.8344 875.81 88.7269Z" fill="#EBECF9" fill-opacity="0.7"/>
<path d="M1012.03 777.97V763.84L960.477 742.072V756.202L1012.03 777.97Z" fill="#EBECF9" fill-opacity="0.7"/>
<path d="M1000.85 841.604C993.709 834.209 986.248 819.703 986.248 819.703C986.248 819.703 980.164 834.306 973.472 841.604C965.454 850.348 947.92 858.031 947.92 858.031C947.92 858.031 965.583 862.918 973.472 870.807C981.361 878.695 986.248 896.358 986.248 896.358C986.248 896.358 992.52 878.726 1000.85 870.807C1008.48 863.555 1024.58 858.031 1024.58 858.031C1024.58 858.031 1008.68 849.712 1000.85 841.604Z" fill="#EBECF9" fill-opacity="0.7"/>
<path d="M1011.01 965.666V951.536L959.453 929.768V943.898L1011.01 965.666Z" fill="#EBECF9" fill-opacity="0.7"/>
<path d="M999.826 1029.3C992.685 1021.91 985.224 1007.4 985.224 1007.4C985.224 1007.4 979.141 1022 972.449 1029.3C964.431 1038.04 946.897 1045.73 946.897 1045.73C946.897 1045.73 964.56 1050.61 972.449 1058.5C980.337 1066.39 985.224 1084.06 985.224 1084.06C985.224 1084.06 991.497 1066.42 999.826 1058.5C1007.45 1051.25 1023.55 1045.73 1023.55 1045.73C1023.55 1045.73 1007.65 1037.41 999.826 1029.3Z" fill="#EBECF9" fill-opacity="0.7"/>
<path d="M1221.95 499.902C1214.81 492.506 1207.35 478 1207.35 478C1207.35 478 1201.27 492.604 1194.58 499.902C1186.56 508.645 1169.02 516.328 1169.02 516.328C1169.02 516.328 1186.69 521.215 1194.58 529.104C1202.46 536.993 1207.35 554.656 1207.35 554.656C1207.35 554.656 1213.62 537.023 1221.95 529.104C1229.58 521.852 1245.68 516.328 1245.68 516.328C1245.68 516.328 1229.78 508.009 1221.95 499.902Z" fill="#EBECF9" fill-opacity="0.7"/>
<path d="M1232.11 623.963V609.833L1180.56 588.065V602.195L1232.11 623.963Z" fill="#EBECF9" fill-opacity="0.7"/>
<path d="M1220.93 687.598C1213.79 680.203 1206.33 665.697 1206.33 665.697C1206.33 665.697 1200.24 680.3 1193.55 687.598C1185.53 696.341 1168 704.025 1168 704.025C1168 704.025 1185.66 708.912 1193.55 716.8C1201.44 724.689 1206.33 742.352 1206.33 742.352C1206.33 742.352 1212.6 724.72 1220.93 716.8C1228.56 709.549 1244.66 704.025 1244.66 704.025C1244.66 704.025 1228.76 695.706 1220.93 687.598Z" fill="#EBECF9" fill-opacity="0.7"/>
<path d="M1322.95 608.902C1315.81 601.506 1308.35 587 1308.35 587C1308.35 587 1302.27 601.604 1295.58 608.902C1287.56 617.645 1270.02 625.328 1270.02 625.328C1270.02 625.328 1287.69 630.215 1295.58 638.104C1303.46 645.993 1308.35 663.656 1308.35 663.656C1308.35 663.656 1314.62 646.023 1322.95 638.104C1330.58 630.852 1346.68 625.328 1346.68 625.328C1346.68 625.328 1330.78 617.009 1322.95 608.902Z" fill="#EBECF9" fill-opacity="0.7"/>
<path d="M1333.11 732.963V718.833L1281.56 697.065V711.195L1333.11 732.963Z" fill="#EBECF9" fill-opacity="0.7"/>
<path d="M1321.93 796.598C1314.79 789.203 1307.33 774.697 1307.33 774.697C1307.33 774.697 1301.24 789.3 1294.55 796.598C1286.53 805.341 1269 813.025 1269 813.025C1269 813.025 1286.66 817.912 1294.55 825.8C1302.44 833.689 1307.33 851.352 1307.33 851.352C1307.33 851.352 1313.6 833.72 1321.93 825.8C1329.56 818.549 1345.66 813.025 1345.66 813.025C1345.66 813.025 1329.76 804.706 1321.93 796.598Z" fill="#EBECF9" fill-opacity="0.7"/>
<path d="M1220.95 113.902C1213.81 106.506 1206.35 92 1206.35 92C1206.35 92 1200.27 106.604 1193.58 113.902C1185.56 122.645 1168.02 130.328 1168.02 130.328C1168.02 130.328 1185.69 135.215 1193.58 143.104C1201.46 150.993 1206.35 168.656 1206.35 168.656C1206.35 168.656 1212.62 151.023 1220.95 143.104C1228.58 135.852 1244.68 130.328 1244.68 130.328C1244.68 130.328 1228.78 122.009 1220.95 113.902Z" fill="#EBECF9" fill-opacity="0.7"/>
<path d="M1231.11 237.963V223.833L1179.56 202.065V216.195L1231.11 237.963Z" fill="#EBECF9" fill-opacity="0.7"/>
<path d="M1219.93 301.598C1212.79 294.203 1205.33 279.697 1205.33 279.697C1205.33 279.697 1199.24 294.3 1192.55 301.598C1184.53 310.341 1167 318.025 1167 318.025C1167 318.025 1184.66 322.912 1192.55 330.8C1200.44 338.689 1205.33 356.352 1205.33 356.352C1205.33 356.352 1211.6 338.72 1219.93 330.8C1227.56 323.549 1243.66 318.025 1243.66 318.025C1243.66 318.025 1227.76 309.706 1219.93 301.598Z" fill="#EBECF9" fill-opacity="0.7"/>
<path d="M1001.87 653.91C994.733 646.515 987.272 632.008 987.272 632.008C987.272 632.008 981.188 646.612 974.496 653.91C966.478 662.653 948.944 670.336 948.944 670.336C948.944 670.336 966.607 675.223 974.496 683.112C982.385 691.001 987.272 708.664 987.272 708.664C987.272 708.664 993.544 691.032 1001.87 683.112C1009.5 675.861 1025.6 670.336 1025.6 670.336C1025.6 670.336 1009.7 662.018 1001.87 653.91Z" fill="#EBECF9" fill-opacity="0.7"/>
<path d="M1014.05 407.695V393.564L962.496 371.796V385.926L1014.05 407.695Z" fill="#EBECF9" fill-opacity="0.7"/>
<path d="M1002.87 471.328C995.728 463.933 988.267 449.427 988.267 449.427C988.267 449.427 982.184 464.03 975.491 471.328C967.474 480.071 949.94 487.754 949.94 487.754C949.94 487.754 967.603 492.642 975.491 500.53C983.38 508.419 988.267 526.082 988.267 526.082C988.267 526.082 994.54 508.45 1002.87 500.53C1010.5 493.279 1026.6 487.754 1026.6 487.754C1026.6 487.754 1010.7 479.436 1002.87 471.328Z" fill="#EBECF9" fill-opacity="0.7"/>
<path d="M1013.03 595.39V581.26L961.472 559.492V573.622L1013.03 595.39Z" fill="#EBECF9" fill-opacity="0.7"/>
<path d="M494.137 658.958V644.828L442.581 623.059V637.19L494.137 658.958Z" fill="#EBECF9" fill-opacity="0.7"/>
<path d="M481.93 910.289C474.789 902.893 467.328 888.387 467.328 888.387C467.328 888.387 461.245 902.99 454.553 910.289C446.535 919.032 429.001 926.715 429.001 926.715C429.001 926.715 446.664 931.602 454.553 939.491C462.441 947.379 467.328 965.043 467.328 965.043C467.328 965.043 473.601 947.41 481.93 939.491C489.556 932.239 505.656 926.715 505.656 926.715C505.656 926.715 489.757 918.396 481.93 910.289Z" fill="#EBECF9" fill-opacity="0.7"/>
<path d="M483.976 534.897C476.836 527.502 469.375 512.996 469.375 512.996C469.375 512.996 463.292 527.599 456.599 534.897C448.582 543.64 431.048 551.324 431.048 551.324C431.048 551.324 448.711 556.211 456.599 564.099C464.488 571.988 469.375 589.651 469.375 589.651C469.375 589.651 475.647 572.019 483.976 564.099C491.603 556.848 507.703 551.324 507.703 551.324C507.703 551.324 491.804 543.005 483.976 534.897Z" fill="#EBECF9" fill-opacity="0.7"/>
<path d="M484.972 352.316C477.832 344.921 470.371 330.414 470.371 330.414C470.371 330.414 464.287 345.018 457.595 352.316C449.577 361.059 432.043 368.742 432.043 368.742C432.043 368.742 449.706 373.629 457.595 381.518C465.484 389.407 470.371 407.07 470.371 407.07C470.371 407.07 476.643 389.437 484.972 381.518C492.599 374.266 508.699 368.742 508.699 368.742C508.699 368.742 492.8 360.423 484.972 352.316Z" fill="#EBECF9" fill-opacity="0.7"/>
<path d="M495.133 476.378V462.248L443.576 440.479V454.61L495.133 476.378Z" fill="#EBECF9" fill-opacity="0.7"/>
<path d="M358.93 820.483C351.789 813.088 344.328 798.582 344.328 798.582C344.328 798.582 338.245 813.185 331.553 820.483C323.535 829.226 306.001 836.909 306.001 836.909C306.001 836.909 323.664 841.797 331.553 849.685C339.441 857.574 344.328 875.237 344.328 875.237C344.328 875.237 350.601 857.605 358.93 849.685C366.556 842.434 382.656 836.909 382.656 836.909C382.656 836.909 366.757 828.591 358.93 820.483Z" fill="#EBECF9" fill-opacity="0.7"/>
<path d="M359.925 637.902C352.785 630.506 345.324 616 345.324 616C345.324 616 339.24 630.604 332.548 637.902C324.53 646.645 306.996 654.328 306.996 654.328C306.996 654.328 324.659 659.215 332.548 667.104C340.436 674.993 345.324 692.656 345.324 692.656C345.324 692.656 351.596 675.023 359.925 667.104C367.551 659.852 383.651 654.328 383.651 654.328C383.651 654.328 367.753 646.009 359.925 637.902Z" fill="#EBECF9" fill-opacity="0.7"/>
<path d="M370.086 761.964V747.833L318.529 726.065V740.195L370.086 761.964Z" fill="#EBECF9" fill-opacity="0.7"/>
<path d="M370.557 565.899V551.768L319 530V544.13L370.557 565.899Z" fill="#EBECF9" fill-opacity="0.7"/>
<path d="M212.93 382.483C205.789 375.088 198.328 360.582 198.328 360.582C198.328 360.582 192.245 375.185 185.553 382.483C177.535 391.226 160.001 398.909 160.001 398.909C160.001 398.909 177.664 403.797 185.553 411.685C193.441 419.574 198.328 437.237 198.328 437.237C198.328 437.237 204.601 419.605 212.93 411.685C220.556 404.434 236.656 398.909 236.656 398.909C236.656 398.909 220.757 390.591 212.93 382.483Z" fill="#EBECF9" fill-opacity="0.7"/>
<path d="M213.925 199.902C206.785 192.506 199.324 178 199.324 178C199.324 178 193.24 192.604 186.548 199.902C178.53 208.645 160.996 216.328 160.996 216.328C160.996 216.328 178.659 221.215 186.548 229.104C194.436 236.993 199.324 254.656 199.324 254.656C199.324 254.656 205.596 237.023 213.925 229.104C221.551 221.852 237.651 216.328 237.651 216.328C237.651 216.328 221.753 208.009 213.925 199.902Z" fill="#EBECF9" fill-opacity="0.7"/>
<path d="M224.086 323.964V309.833L172.529 288.065V302.195L224.086 323.964Z" fill="#EBECF9" fill-opacity="0.7"/>
<path d="M224.557 127.899V113.768L173 92V106.13L224.557 127.899Z" fill="#EBECF9" fill-opacity="0.7"/>
<path d="M1003.89 283.634C996.752 276.239 989.291 261.733 989.291 261.733C989.291 261.733 983.207 276.336 976.515 283.634C968.497 292.377 950.963 300.06 950.963 300.06C950.963 300.06 968.626 304.947 976.515 312.836C984.404 320.725 989.291 338.388 989.291 338.388C989.291 338.388 995.563 320.756 1003.89 312.836C1011.52 305.585 1027.62 300.06 1027.62 300.06C1027.62 300.06 1011.72 291.742 1003.89 283.634Z" fill="#EBECF9" fill-opacity="0.7"/>
<path d="M1110.42 516.238V502.108L1058.86 480.339V494.47L1110.42 516.238Z" fill="#EBECF9" fill-opacity="0.7"/>
<path d="M1098.21 767.569C1091.07 760.174 1083.61 745.667 1083.61 745.667C1083.61 745.667 1077.52 760.271 1070.83 767.569C1062.81 776.312 1045.28 783.995 1045.28 783.995C1045.28 783.995 1062.94 788.882 1070.83 796.771C1078.72 804.66 1083.61 822.323 1083.61 822.323C1083.61 822.323 1089.88 804.69 1098.21 796.771C1105.83 789.519 1121.93 783.995 1121.93 783.995C1121.93 783.995 1106.04 775.676 1098.21 767.569Z" fill="#EBECF9" fill-opacity="0.7"/>
<path d="M1100.25 392.178C1093.11 384.782 1085.65 370.276 1085.65 370.276C1085.65 370.276 1079.57 384.88 1072.88 392.178C1064.86 400.921 1047.33 408.604 1047.33 408.604C1047.33 408.604 1064.99 413.491 1072.88 421.38C1080.77 429.269 1085.65 446.932 1085.65 446.932C1085.65 446.932 1091.93 429.299 1100.25 421.38C1107.88 414.128 1123.98 408.604 1123.98 408.604C1123.98 408.604 1108.08 400.285 1100.25 392.178Z" fill="#EBECF9" fill-opacity="0.7"/>
<path d="M1112.43 145.962V131.832L1060.88 110.063V124.194L1112.43 145.962Z" fill="#EBECF9" fill-opacity="0.7"/>
<path d="M1102.27 21.9016C1095.13 14.5065 1087.67 0 1087.67 0C1087.67 0 1081.59 14.6036 1074.9 21.9016C1066.88 30.6447 1049.34 38.3278 1049.34 38.3278C1049.34 38.3278 1067.01 43.2149 1074.9 51.1037C1082.79 58.9925 1087.67 76.6556 1087.67 76.6556C1087.67 76.6556 1093.94 59.023 1102.27 51.1037C1109.9 43.8522 1126 38.3278 1126 38.3278C1126 38.3278 1110.1 30.009 1102.27 21.9016Z" fill="#EBECF9" fill-opacity="0.7"/>
</svg>
