<svg width="118" height="11" viewBox="0 0 118 11" fill="none" xmlns="http://www.w3.org/2000/svg">
<path d="M42.7998 8.15142V6.12373L50.1981 3V5.02769L42.7998 8.15142Z" fill="#E7E1E1"/>
<path d="M30.3393 3.14286C31.3639 2.08166 32.4346 0 32.4346 0C32.4346 0 33.3076 2.0956 34.2679 3.14286C35.4184 4.39749 37.9346 5.5 37.9346 5.5C37.9346 5.5 35.3999 6.2013 34.2679 7.33333C33.1359 8.46537 32.4346 11 32.4346 11C32.4346 11 31.5345 8.46975 30.3393 7.33333C29.2449 6.29275 26.9346 5.5 26.9346 5.5C26.9346 5.5 29.216 4.30627 30.3393 3.14286Z" fill="#E7E1E1"/>
<path d="M15.8652 8.15142V6.12373L23.2635 3V5.02769L15.8652 8.15142Z" fill="#E7E1E1"/>
<path d="M3.40476 3.14286C4.42936 2.08166 5.50001 0 5.50001 0C5.50001 0 6.37299 2.0956 7.33333 3.14286C8.48384 4.39749 11 5.5 11 5.5C11 5.5 8.46537 6.2013 7.33333 7.33333C6.2013 8.46537 5.50001 11 5.50001 11C5.50001 11 4.59996 8.46975 3.40476 7.33333C2.31035 6.29275 0 5.5 0 5.5C0 5.5 2.28147 4.30627 3.40476 3.14286Z" fill="#E7E1E1"/>
<path d="M57.2739 3.14286C58.2985 2.08166 59.3691 0 59.3691 0C59.3691 0 60.2421 2.0956 61.2025 3.14286C62.353 4.39749 64.8691 5.5 64.8691 5.5C64.8691 5.5 62.3345 6.2013 61.2025 7.33333C60.0704 8.46537 59.3691 11 59.3691 11C59.3691 11 58.4691 8.46975 57.2739 7.33333C56.1795 6.29275 53.8691 5.5 53.8691 5.5C53.8691 5.5 56.1506 4.30627 57.2739 3.14286Z" fill="#E7E1E1"/>
<path d="M95.9346 8.15142V6.12373L103.333 3V5.02769L95.9346 8.15142Z" fill="#E7E1E1"/>
<path d="M83.4746 3.14286C84.4992 2.08166 85.5698 0 85.5698 0C85.5698 0 86.4428 2.0956 87.4032 3.14286C88.5537 4.39749 91.0698 5.5 91.0698 5.5C91.0698 5.5 88.5352 6.2013 87.4032 7.33333C86.2711 8.46537 85.5698 11 85.5698 11C85.5698 11 84.6698 8.46975 83.4746 7.33333C82.3802 6.29275 80.0698 5.5 80.0698 5.5C80.0698 5.5 82.3513 4.30627 83.4746 3.14286Z" fill="#E7E1E1"/>
<path d="M69 8.15142V6.12373L76.3983 3V5.02769L69 8.15142Z" fill="#E7E1E1"/>
<path d="M110.409 3.14286C111.433 2.08166 112.504 0 112.504 0C112.504 0 113.377 2.0956 114.337 3.14286C115.488 4.39749 118.004 5.5 118.004 5.5C118.004 5.5 115.469 6.2013 114.337 7.33333C113.205 8.46537 112.504 11 112.504 11C112.504 11 111.604 8.46975 110.409 7.33333C109.314 6.29275 107.004 5.5 107.004 5.5C107.004 5.5 109.285 4.30627 110.409 3.14286Z" fill="#E7E1E1"/>
</svg>
