<svg width="697" height="1024" viewBox="0 0 697 1024" fill="none" xmlns="http://www.w3.org/2000/svg">
<path d="M195.075 518.913V504.783L143.518 483.015V497.145L195.075 518.913Z" fill="#EBECF9" fill-opacity="0.7"/>
<path d="M183.89 582.547C176.75 575.152 169.289 560.646 169.289 560.646C169.289 560.646 163.206 575.249 156.513 582.547C148.496 591.291 130.962 598.974 130.962 598.974C130.962 598.974 148.625 603.861 156.513 611.75C164.402 619.638 169.289 637.301 169.289 637.301C169.289 637.301 175.562 619.669 183.89 611.75C191.517 604.498 207.617 598.974 207.617 598.974C207.617 598.974 191.718 590.655 183.89 582.547Z" fill="#EBECF9" fill-opacity="0.7"/>
<path d="M194.051 706.609V692.479L142.495 670.711V684.841L194.051 706.609Z" fill="#EBECF9" fill-opacity="0.7"/>
<path d="M182.867 770.244C175.727 762.849 168.266 748.342 168.266 748.342C168.266 748.342 162.182 762.946 155.49 770.244C147.472 778.987 129.938 786.67 129.938 786.67C129.938 786.67 147.601 791.557 155.49 799.446C163.379 807.335 168.266 824.998 168.266 824.998C168.266 824.998 174.538 807.365 182.867 799.446C190.494 792.195 206.594 786.67 206.594 786.67C206.594 786.67 190.695 778.351 182.867 770.244Z" fill="#EBECF9" fill-opacity="0.7"/>
<path d="M184.914 394.853C177.774 387.458 170.313 372.951 170.313 372.951C170.313 372.951 164.229 387.555 157.537 394.853C149.519 403.596 131.985 411.279 131.985 411.279C131.985 411.279 149.648 416.166 157.537 424.055C165.426 431.944 170.313 449.607 170.313 449.607C170.313 449.607 176.585 431.974 184.914 424.055C192.54 416.804 208.641 411.279 208.641 411.279C208.641 411.279 192.742 402.96 184.914 394.853Z" fill="#EBECF9" fill-opacity="0.7"/>
<path d="M197.094 148.638V134.507L145.537 112.739V126.869L197.094 148.638Z" fill="#EBECF9" fill-opacity="0.7"/>
<path d="M185.909 212.271C178.769 204.876 171.308 190.37 171.308 190.37C171.308 190.37 165.225 204.973 158.532 212.271C150.515 221.014 132.981 228.697 132.981 228.697C132.981 228.697 150.644 233.585 158.532 241.473C166.421 249.362 171.308 267.025 171.308 267.025C171.308 267.025 177.581 249.393 185.909 241.473C193.536 234.222 209.636 228.697 209.636 228.697C209.636 228.697 193.737 220.379 185.909 212.271Z" fill="#EBECF9" fill-opacity="0.7"/>
<path d="M196.07 336.333V322.203L144.514 300.435V314.565L196.07 336.333Z" fill="#EBECF9" fill-opacity="0.7"/>
<path d="M186.933 24.577C179.793 17.1819 172.332 2.6754 172.332 2.6754C172.332 2.6754 166.249 17.279 159.556 24.577C151.539 33.3201 134.005 41.0032 134.005 41.0032C134.005 41.0032 151.668 45.8903 159.556 53.7791C167.445 61.6679 172.332 79.331 172.332 79.331C172.332 79.331 178.604 61.6984 186.933 53.7791C194.56 46.5276 210.66 41.0032 210.66 41.0032C210.66 41.0032 194.761 32.6844 186.933 24.577Z" fill="#EBECF9" fill-opacity="0.7"/>
<path d="M317.588 797.352V783.222L266.031 761.454V775.584L317.588 797.352Z" fill="#EBECF9" fill-opacity="0.7"/>
<path d="M306.404 860.986C299.264 853.591 291.803 839.085 291.803 839.085C291.803 839.085 285.719 853.688 279.027 860.986C271.009 869.729 253.475 877.412 253.475 877.412C253.475 877.412 271.138 882.299 279.027 890.188C286.915 898.077 291.803 915.74 291.803 915.74C291.803 915.74 298.075 898.108 306.404 890.188C314.03 882.937 330.13 877.412 330.13 877.412C330.13 877.412 314.232 869.094 306.404 860.986Z" fill="#EBECF9" fill-opacity="0.7"/>
<path d="M316.564 985.048V970.918L265.007 949.149V963.28L316.564 985.048Z" fill="#EBECF9" fill-opacity="0.7"/>
<path d="M307.427 673.292C300.287 665.897 292.826 651.39 292.826 651.39C292.826 651.39 286.742 665.994 280.05 673.292C272.033 682.035 254.498 689.718 254.498 689.718C254.498 689.718 272.161 694.605 280.05 702.494C287.939 710.383 292.826 728.046 292.826 728.046C292.826 728.046 299.098 710.413 307.427 702.494C315.054 695.243 331.154 689.718 331.154 689.718C331.154 689.718 315.255 681.399 307.427 673.292Z" fill="#EBECF9" fill-opacity="0.7"/>
<path d="M319.607 427.076V412.946L268.05 391.178V405.308L319.607 427.076Z" fill="#EBECF9" fill-opacity="0.7"/>
<path d="M308.423 490.71C301.283 483.315 293.822 468.808 293.822 468.808C293.822 468.808 287.738 483.412 281.046 490.71C273.028 499.453 255.494 507.136 255.494 507.136C255.494 507.136 273.157 512.023 281.046 519.912C288.934 527.801 293.822 545.464 293.822 545.464C293.822 545.464 300.094 527.832 308.423 519.912C316.049 512.661 332.149 507.136 332.149 507.136C332.149 507.136 316.251 498.818 308.423 490.71Z" fill="#EBECF9" fill-opacity="0.7"/>
<path d="M318.583 614.772V600.642L267.027 578.874V593.004L318.583 614.772Z" fill="#EBECF9" fill-opacity="0.7"/>
<path d="M309.447 303.016C302.306 295.621 294.846 281.114 294.846 281.114C294.846 281.114 288.762 295.718 282.07 303.016C274.052 311.759 256.518 319.442 256.518 319.442C256.518 319.442 274.181 324.329 282.07 332.218C289.958 340.107 294.846 357.77 294.846 357.77C294.846 357.77 301.118 340.137 309.447 332.218C317.073 324.966 333.173 319.442 333.173 319.442C333.173 319.442 317.274 311.123 309.447 303.016Z" fill="#EBECF9" fill-opacity="0.7"/>
<path d="M454.951 504.063V489.933L403.394 468.165V482.295L454.951 504.063Z" fill="#EBECF9" fill-opacity="0.7"/>
<path d="M443.767 567.697C436.627 560.302 429.166 545.796 429.166 545.796C429.166 545.796 423.082 560.399 416.39 567.697C408.372 576.44 390.838 584.124 390.838 584.124C390.838 584.124 408.501 589.011 416.39 596.899C424.279 604.788 429.166 622.451 429.166 622.451C429.166 622.451 435.438 604.819 443.767 596.899C451.394 589.648 467.494 584.124 467.494 584.124C467.494 584.124 451.595 575.805 443.767 567.697Z" fill="#EBECF9" fill-opacity="0.7"/>
<path d="M453.927 691.759V677.629L402.371 655.861V669.991L453.927 691.759Z" fill="#EBECF9" fill-opacity="0.7"/>
<path d="M442.743 755.394C435.603 747.999 428.142 733.492 428.142 733.492C428.142 733.492 422.058 748.096 415.366 755.394C407.348 764.137 389.814 771.82 389.814 771.82C389.814 771.82 407.477 776.707 415.366 784.596C423.255 792.485 428.142 810.148 428.142 810.148C428.142 810.148 434.414 792.515 442.743 784.596C450.37 777.345 466.47 771.82 466.47 771.82C466.47 771.82 450.571 763.501 442.743 755.394Z" fill="#EBECF9" fill-opacity="0.7"/>
<path d="M444.79 380.003C437.65 372.608 430.189 358.101 430.189 358.101C430.189 358.101 424.106 372.705 417.413 380.003C409.396 388.746 391.861 396.429 391.861 396.429C391.861 396.429 409.525 401.316 417.413 409.205C425.302 417.094 430.189 434.757 430.189 434.757C430.189 434.757 436.461 417.124 444.79 409.205C452.417 401.954 468.517 396.429 468.517 396.429C468.517 396.429 452.618 388.11 444.79 380.003Z" fill="#EBECF9" fill-opacity="0.7"/>
<path d="M456.97 133.787V119.657L405.414 97.8888V112.019L456.97 133.787Z" fill="#EBECF9" fill-opacity="0.7"/>
<path d="M445.786 197.421C438.646 190.026 431.185 175.519 431.185 175.519C431.185 175.519 425.101 190.123 418.409 197.421C410.391 206.164 392.857 213.847 392.857 213.847C392.857 213.847 410.52 218.734 418.409 226.623C426.298 234.512 431.185 252.175 431.185 252.175C431.185 252.175 437.457 234.543 445.786 226.623C453.413 219.372 469.513 213.847 469.513 213.847C469.513 213.847 453.614 205.529 445.786 197.421Z" fill="#EBECF9" fill-opacity="0.7"/>
<path d="M455.946 321.483V307.353L404.39 285.585V299.715L455.946 321.483Z" fill="#EBECF9" fill-opacity="0.7"/>
<path d="M446.809 9.72692C439.669 2.33179 432.208 -12.1747 432.208 -12.1747C432.208 -12.1747 426.125 2.4289 419.432 9.72692C411.415 18.47 393.881 26.1531 393.881 26.1531C393.881 26.1531 411.544 31.0403 419.432 38.9291C427.321 46.8178 432.208 64.4809 432.208 64.4809C432.208 64.4809 438.48 46.8484 446.809 38.9291C454.436 31.6775 470.536 26.1531 470.536 26.1531C470.536 26.1531 454.637 17.8344 446.809 9.72692Z" fill="#EBECF9" fill-opacity="0.7"/>
<path d="M583.033 698.97V684.84L531.476 663.072V677.202L583.033 698.97Z" fill="#EBECF9" fill-opacity="0.7"/>
<path d="M571.848 762.604C564.708 755.209 557.247 740.703 557.247 740.703C557.247 740.703 551.164 755.306 544.471 762.604C536.454 771.348 518.92 779.031 518.92 779.031C518.92 779.031 536.583 783.918 544.471 791.807C552.36 799.695 557.247 817.358 557.247 817.358C557.247 817.358 563.52 799.726 571.848 791.807C579.475 784.555 595.575 779.031 595.575 779.031C595.575 779.031 579.676 770.712 571.848 762.604Z" fill="#EBECF9" fill-opacity="0.7"/>
<path d="M582.009 886.666V872.536L530.453 850.768V864.898L582.009 886.666Z" fill="#EBECF9" fill-opacity="0.7"/>
<path d="M570.825 950.301C563.685 942.906 556.224 928.4 556.224 928.4C556.224 928.4 550.14 943.003 543.448 950.301C535.43 959.044 517.896 966.727 517.896 966.727C517.896 966.727 535.559 971.614 543.448 979.503C551.337 987.392 556.224 1005.06 556.224 1005.06C556.224 1005.06 562.496 987.423 570.825 979.503C578.452 972.252 594.552 966.727 594.552 966.727C594.552 966.727 578.653 958.409 570.825 950.301Z" fill="#EBECF9" fill-opacity="0.7"/>
<path d="M572.872 574.91C565.732 567.515 558.271 553.008 558.271 553.008C558.271 553.008 552.188 567.612 545.495 574.91C537.478 583.653 519.944 591.336 519.944 591.336C519.944 591.336 537.607 596.223 545.495 604.112C553.384 612.001 558.271 629.664 558.271 629.664C558.271 629.664 564.543 612.032 572.872 604.112C580.499 596.861 596.599 591.336 596.599 591.336C596.599 591.336 580.7 583.018 572.872 574.91Z" fill="#EBECF9" fill-opacity="0.7"/>
<path d="M585.052 328.695V314.564L533.495 292.796V306.926L585.052 328.695Z" fill="#EBECF9" fill-opacity="0.7"/>
<path d="M573.868 392.328C566.728 384.933 559.267 370.427 559.267 370.427C559.267 370.427 553.183 385.03 546.491 392.328C538.473 401.071 520.939 408.754 520.939 408.754C520.939 408.754 538.602 413.642 546.491 421.53C554.38 429.419 559.267 447.082 559.267 447.082C559.267 447.082 565.539 429.45 573.868 421.53C581.495 414.279 597.595 408.754 597.595 408.754C597.595 408.754 581.696 400.436 573.868 392.328Z" fill="#EBECF9" fill-opacity="0.7"/>
<path d="M584.028 516.39V502.26L532.472 480.492V494.622L584.028 516.39Z" fill="#EBECF9" fill-opacity="0.7"/>
<path d="M65.1367 579.958V565.828L13.5801 544.059V558.19L65.1367 579.958Z" fill="#EBECF9" fill-opacity="0.7"/>
<path d="M53.9525 643.592C46.8123 636.197 39.3514 621.69 39.3514 621.69C39.3514 621.69 33.2678 636.294 26.5755 643.592C18.5579 652.335 1.0236 660.018 1.0236 660.018C1.0236 660.018 18.6867 664.905 26.5755 672.794C34.4642 680.683 39.3514 698.346 39.3514 698.346C39.3514 698.346 45.6235 680.713 53.9525 672.794C61.5791 665.542 77.6792 660.018 77.6792 660.018C77.6792 660.018 61.7803 651.699 53.9525 643.592Z" fill="#EBECF9" fill-opacity="0.7"/>
<path d="M64.1128 767.654V753.523L12.5562 731.755V745.885L64.1128 767.654Z" fill="#EBECF9" fill-opacity="0.7"/>
<path d="M52.929 831.289C45.7889 823.893 38.3279 809.387 38.3279 809.387C38.3279 809.387 32.2444 823.99 25.552 831.289C17.5345 840.032 0.000160217 847.715 0.000160217 847.715C0.000160217 847.715 17.6632 852.602 25.552 860.491C33.4408 868.379 38.3279 886.043 38.3279 886.043C38.3279 886.043 44.6001 868.41 52.929 860.491C60.5556 853.239 76.6558 847.715 76.6558 847.715C76.6558 847.715 60.7569 839.396 52.929 831.289Z" fill="#EBECF9" fill-opacity="0.7"/>
<path d="M54.9759 455.897C47.8358 448.502 40.3748 433.996 40.3748 433.996C40.3748 433.996 34.2913 448.599 27.5989 455.897C19.5814 464.64 2.04704 472.324 2.04704 472.324C2.04704 472.324 19.7101 477.211 27.5989 485.099C35.4877 492.988 40.3748 510.651 40.3748 510.651C40.3748 510.651 46.647 493.019 54.9759 485.099C62.6025 477.848 78.7026 472.324 78.7026 472.324C78.7026 472.324 62.8038 464.005 54.9759 455.897Z" fill="#EBECF9" fill-opacity="0.7"/>
<path d="M55.9715 273.316C48.8314 265.921 41.3704 251.414 41.3704 251.414C41.3704 251.414 35.2869 266.018 28.5945 273.316C20.577 282.059 3.04264 289.742 3.04264 289.742C3.04264 289.742 20.7057 294.629 28.5945 302.518C36.4833 310.407 41.3704 328.07 41.3704 328.07C41.3704 328.07 47.6426 310.437 55.9715 302.518C63.5981 295.266 79.6982 289.742 79.6982 289.742C79.6982 289.742 63.7994 281.423 55.9715 273.316Z" fill="#EBECF9" fill-opacity="0.7"/>
<path d="M66.1323 397.378V383.248L14.5758 361.479V375.61L66.1323 397.378Z" fill="#EBECF9" fill-opacity="0.7"/>
<path d="M574.891 204.634C567.751 197.239 560.29 182.733 560.29 182.733C560.29 182.733 554.207 197.336 547.514 204.634C539.497 213.377 521.963 221.06 521.963 221.06C521.963 221.06 539.626 225.947 547.514 233.836C555.403 241.725 560.29 259.388 560.29 259.388C560.29 259.388 566.562 241.756 574.891 233.836C582.518 226.585 598.618 221.06 598.618 221.06C598.618 221.06 582.719 212.742 574.891 204.634Z" fill="#EBECF9" fill-opacity="0.7"/>
<path d="M681.415 437.238V423.108L629.858 401.339V415.47L681.415 437.238Z" fill="#EBECF9" fill-opacity="0.7"/>
<path d="M670.23 500.872C663.09 493.477 655.629 478.97 655.629 478.97C655.629 478.97 649.546 493.574 642.853 500.872C634.836 509.615 617.301 517.298 617.301 517.298C617.301 517.298 634.965 522.185 642.853 530.074C650.742 537.963 655.629 555.626 655.629 555.626C655.629 555.626 661.901 537.993 670.23 530.074C677.857 522.823 693.957 517.298 693.957 517.298C693.957 517.298 678.058 508.979 670.23 500.872Z" fill="#EBECF9" fill-opacity="0.7"/>
<path d="M680.391 624.934V610.804L628.835 589.035V603.166L680.391 624.934Z" fill="#EBECF9" fill-opacity="0.7"/>
<path d="M669.207 688.569C662.067 681.174 654.606 666.667 654.606 666.667C654.606 666.667 648.522 681.271 641.83 688.569C633.812 697.312 616.278 704.995 616.278 704.995C616.278 704.995 633.941 709.882 641.83 717.771C649.719 725.66 654.606 743.323 654.606 743.323C654.606 743.323 660.878 725.69 669.207 717.771C676.833 710.519 692.934 704.995 692.934 704.995C692.934 704.995 677.035 696.676 669.207 688.569Z" fill="#EBECF9" fill-opacity="0.7"/>
<path d="M671.254 313.178C664.114 305.782 656.653 291.276 656.653 291.276C656.653 291.276 650.569 305.88 643.877 313.178C635.859 321.921 618.325 329.604 618.325 329.604C618.325 329.604 635.988 334.491 643.877 342.38C651.766 350.269 656.653 367.932 656.653 367.932C656.653 367.932 662.925 350.299 671.254 342.38C678.88 335.128 694.98 329.604 694.98 329.604C694.98 329.604 679.082 321.285 671.254 313.178Z" fill="#EBECF9" fill-opacity="0.7"/>
<path d="M683.434 66.9621V52.8318L631.877 31.0635V45.1938L683.434 66.9621Z" fill="#EBECF9" fill-opacity="0.7"/>
<path d="M672.25 130.596C665.11 123.201 657.649 108.694 657.649 108.694C657.649 108.694 651.565 123.298 644.873 130.596C636.855 139.339 619.321 147.022 619.321 147.022C619.321 147.022 636.984 151.909 644.873 159.798C652.762 167.687 657.649 185.35 657.649 185.35C657.649 185.35 663.921 167.717 672.25 159.798C679.876 152.546 695.977 147.022 695.977 147.022C695.977 147.022 680.078 138.703 672.25 130.596Z" fill="#EBECF9" fill-opacity="0.7"/>
<path d="M682.41 254.658V240.528L630.854 218.759V232.89L682.41 254.658Z" fill="#EBECF9" fill-opacity="0.7"/>
</svg>
